<svg width="40" height="40" viewBox="0 0 40 40" fill="none" xmlns="http://www.w3.org/2000/svg">
<rect width="40" height="40" rx="7" fill="#0D4B9B"/>
<path d="M21 13.1498L22.49 17.4798C22.78 18.2798 23.41 18.9298 24.2 19.2398L28.6 20.9898L24.63 22.5698C23.54 22.9998 22.7 23.8798 22.33 24.9898L21.01 28.8298L19.69 24.9798C19.31 23.8798 18.47 22.9898 17.39 22.5598L13.42 20.9798L17.39 19.3998C18.48 18.9698 19.32 18.0898 19.69 16.9798L21.01 13.1398M21 9.08984C20.6 9.08984 20.21 9.31984 20.05 9.76984L17.79 16.3498C17.6 16.8998 17.18 17.3398 16.64 17.5598L10.35 20.0698C9.50997 20.4098 9.50997 21.5998 10.35 21.9398L16.64 24.4498C17.18 24.6698 17.6 25.1098 17.79 25.6598L20.05 32.2498C20.21 32.6998 20.6 32.9298 21 32.9298C21.4 32.9298 21.79 32.6998 21.95 32.2498L24.21 25.6698C24.4 25.1198 24.82 24.6798 25.36 24.4598L31.65 21.9498C32.49 21.6098 32.49 20.4198 31.65 20.0798L24.93 17.3998C24.66 17.2898 24.46 17.0798 24.36 16.8098L21.94 9.76984C21.78 9.31984 21.39 9.08984 20.99 9.08984H21Z" fill="#83D9FF"/>
<path d="M10.25 7.02988C10.51 6.32988 11.49 6.32988 11.75 7.02988L12.49 9.03988C12.57 9.25988 12.74 9.42988 12.96 9.50988L14.97 10.2499C15.67 10.5099 15.67 11.4899 14.97 11.7499L12.96 12.4899C12.74 12.5699 12.57 12.7399 12.49 12.9599L11.75 14.9699C11.49 15.6699 10.51 15.6699 10.25 14.9699L9.51 12.9599C9.43001 12.7399 9.26 12.5699 9.04 12.4899L7.03 11.7499C6.33 11.4899 6.33 10.5099 7.03 10.2499L9.04 9.50988C9.26 9.42988 9.43001 9.25988 9.51 9.03988L10.25 7.02988Z" fill="#83D9FF"/>
</svg>
